# xmcd
#
# Track frame offsets:
#	150
#	12022
#	23310
#	38665
#	49395
#	62665
#	82580
#	92797
#	102187
#	115222
#	130090
#	144492
#	154532
#	167285
#	190440
#	201032
#	218367
#	231065
#	240275
#	254482
#
# Disc length: 3650 seconds
#
# Revision: 7
# Processed by: cddbd v1.5.2PL0 Copyright (c) Steve Scherf et al.
# Submitted via: audiograbber 1.83.01
#
DISCID=eb0e4014
DTITLE=J.J. Cale - The Very Best of J.J. Cale
DYEAR=1997
DGENRE=Blues, Rock
TTITLE0=Call Me the Breeze (1972)
TTITLE1=Crazy Mama (1972)
TTITLE2=Magnolia (1972)
TTITLE3=After Midnight (1972)
TTITLE4=Lies (1972)
TTITLE5=Midnight in Memphis (1972)
TTITLE6=Cajun Moon (1976)
TTITLE7=Rock and Roll Records (1976)
TTITLE8=Cocaine (1976)
TTITLE9=Hey Baby (1976)
TTITLE10=I'll Make Love to You Anytime (1979)
TTITLE11=Don't Cry Sister (1979)
TTITLE12=Thirteen Days (1979)
TTITLE13=Sensitive Kind (1979)
TTITLE14=Carry On (1980)
TTITLE15=Mama Don't (1980)
TTITLE16=City Girls (1982)
TTITLE17=Devil in Disguise (1982)
TTITLE18=Don't Wait (1982)
TTITLE19=Money Talks (1983)
EXTD=Track dates provided.
EXTT0=
EXTT1=
EXTT2=
EXTT3=
EXTT4=
EXTT5=
EXTT6=
EXTT7=
EXTT8=
EXTT9=
EXTT10=
EXTT11=
EXTT12=
EXTT13=
EXTT14=
EXTT15=
EXTT16=
EXTT17=
EXTT18=
EXTT19=
PLAYORDER=
